<?xml version="1.0" standalone="no"?>
<!DOCTYPE svg PUBLIC "-//W3C//DTD SVG 20010904//EN"
 "http://www.w3.org/TR/2001/REC-SVG-20010904/DTD/svg10.dtd">
<svg version="1.0" xmlns="http://www.w3.org/2000/svg"
 width="192.000000pt" height="192.000000pt" viewBox="0 0 192.000000 192.000000"
 preserveAspectRatio="xMidYMid meet">
<metadata>
Created by potrace 1.11, written by Peter Selinger 2001-2013
</metadata>
<g transform="translate(0.000000,192.000000) scale(0.100000,-0.100000)"
fill="#000000" stroke="none">
<path d="M849 1836 c-2 -2 -22 -6 -45 -9 -95 -13 -261 -83 -341 -143 -17 -13
-35 -24 -39 -24 -19 0 -165 -164 -209 -235 -28 -44 -50 -82 -51 -85 -1 -6 -10
-28 -32 -80 -19 -45 -50 -188 -47 -217 1 -13 -1 -23 -4 -23 -3 0 -6 -34 -6
-75 0 -41 3 -75 7 -75 4 0 7 -8 6 -17 -1 -24 16 -123 22 -130 3 -3 3 -5 15
-48 4 -16 14 -40 22 -53 8 -13 12 -30 9 -38 -4 -10 -2 -12 6 -8 8 5 9 2 5 -10
-4 -10 -3 -15 3 -11 5 3 12 -6 16 -20 3 -14 10 -25 14 -25 4 0 13 -13 20 -30
7 -16 16 -30 21 -30 5 0 9 -5 9 -10 0 -11 38 -56 85 -101 90 -87 125 -116 129
-112 3 3 24 -9 48 -26 23 -17 48 -31 55 -31 7 0 13 -4 13 -8 0 -4 10 -9 22 -9
13 -1 24 -7 26 -13 2 -5 13 -10 23 -10 14 0 18 -4 13 -12 -5 -9 -2 -9 9 1 12
9 17 10 17 2 0 -7 4 -9 10 -6 5 3 10 2 10 -3 0 -6 9 -8 20 -5 11 3 20 1 20 -3
0 -5 15 -10 33 -11 41 -4 101 -11 107 -13 11 -5 163 1 171 6 5 3 9 -1 9 -8 0
-9 3 -9 10 2 5 8 10 11 10 6 0 -5 6 -3 13 3 8 6 17 8 20 5 3 -4 14 -3 24 1 10
5 25 9 33 9 8 1 24 7 35 13 16 9 24 8 40 -5 14 -13 17 -13 8 -2 -10 13 -6 18
20 29 45 18 121 55 127 61 14 14 52 30 60 25 6 -3 7 1 4 9 -4 9 -1 16 6 16 7
0 23 11 36 25 13 14 28 25 34 25 5 0 10 5 10 11 0 5 5 7 10 4 6 -4 9 -1 8 7
-2 7 4 12 12 10 8 -2 12 -1 8 3 -4 4 2 17 14 29 11 11 34 40 51 64 17 23 34
42 39 42 4 0 7 3 6 8 -3 12 35 82 44 82 5 0 7 4 3 9 -3 5 1 16 9 24 8 8 13 17
10 20 -3 3 -1 13 5 24 32 59 61 203 62 313 0 93 -19 222 -41 275 -4 11 -18 46
-31 79 -12 32 -44 91 -70 131 -49 76 -176 215 -196 215 -6 0 -13 4 -15 8 -12
31 -202 129 -285 147 -10 2 -34 9 -53 15 -31 11 -293 24 -301 16z"/>
</g>
</svg>
