<?xml version="1.0" standalone="no"?>
<!DOCTYPE svg PUBLIC "-//W3C//DTD SVG 20010904//EN"
 "http://www.w3.org/TR/2001/REC-SVG-20010904/DTD/svg10.dtd">
<svg version="1.0" xmlns="http://www.w3.org/2000/svg"
 width="1000.000000pt" height="1000.000000pt" viewBox="0 0 1000.000000 1000.000000"
 preserveAspectRatio="xMidYMid meet">
<metadata>
Created by potrace 1.11, written by Peter Selinger 2001-2013
</metadata>
<g transform="translate(0.000000,1000.000000) scale(0.100000,-0.100000)"
fill="#000000" stroke="none">
<path d="M2670 9345 c-306 -42 -613 -197 -826 -417 -162 -167 -254 -315 -329
-530 -31 -88 -41 -107 -61 -112 -70 -18 -275 -116 -368 -176 -145 -95 -308
-255 -404 -398 -78 -116 -172 -318 -196 -423 -48 -212 -46 -69 -46 -2770 0
-1771 3 -2542 11 -2592 51 -334 177 -587 408 -817 188 -188 405 -313 646 -374
191 -48 65 -46 2994 -46 2987 0 2786 -4 3011 56 428 113 808 469 957 899 l38
108 105 37 c316 111 582 333 758 635 43 74 115 245 138 330 45 161 44 114 44
2780 0 2209 -2 2534 -15 2624 -77 511 -449 951 -947 1120 -244 82 52 75 -3053
77 -2230 2 -2789 -1 -2865 -11z m4640 -1467 c105 -27 183 -54 251 -88 264
-134 455 -378 517 -665 16 -75 17 -247 17 -2605 0 -2883 9 -2611 -90 -2818
-129 -270 -343 -448 -640 -534 l-80 -23 -2795 0 -2795 0 -79 24 c-44 12 -87
27 -95 31 -9 5 -50 25 -92 44 -264 123 -459 378 -526 687 -17 80 -18 208 -18
2594 l0 2510 22 87 c72 282 229 499 459 636 104 62 269 117 389 131 45 5 1249
8 2785 7 2474 -2 2711 -3 2770 -18z"/>
<path d="M2865 7415 c-499 -70 -930 -402 -1105 -853 -73 -188 -92 -295 -91
-508 1 -319 110 -603 327 -854 153 -177 361 -319 577 -396 78 -27 79 -27 73
-58 -3 -17 -13 -76 -21 -131 -8 -55 -35 -210 -59 -345 -25 -135 -50 -283 -56
-330 -13 -97 -23 -110 -84 -110 -60 0 -179 -25 -287 -59 -292 -94 -565 -355
-674 -646 -103 -274 -81 -611 57 -865 88 -162 238 -322 384 -409 87 -51 241
-116 330 -138 103 -26 421 -25 524 1 332 84 618 321 758 627 56 124 98 343 89
468 l-5 77 182 48 c99 27 257 69 349 93 92 25 169 44 171 42 2 -2 18 -32 35
-67 45 -89 111 -190 183 -278 75 -94 226 -243 282 -281 22 -15 59 -42 81 -59
65 -50 233 -140 340 -182 142 -56 177 -67 290 -91 299 -61 570 -54 875 24 150
39 412 164 540 259 30 23 66 48 80 57 39 25 231 218 278 279 172 223 275 441
329 696 24 116 27 150 27 334 1 177 -2 220 -22 319 -31 150 -46 197 -97 316
-40 90 -57 125 -120 234 -11 18 -47 70 -79 115 -353 484 -958 758 -1564 708
-297 -25 -607 -130 -840 -286 l-82 -55 -137 96 c-76 53 -190 132 -253 176
-141 98 -146 102 -133 119 35 43 100 258 122 405 29 189 -4 455 -79 652 -82
213 -267 450 -465 596 -290 214 -672 310 -1030 260z m445 -465 c345 -100 581
-338 670 -675 29 -111 29 -289 1 -399 -58 -223 -187 -412 -364 -533 -90 -63
-140 -88 -242 -123 -111 -39 -192 -52 -315 -53 -375 0 -702 201 -860 528 -93
193 -111 401 -54 621 33 129 121 278 227 385 120 122 309 224 483 263 104 23
354 16 454 -14z m881 -1933 c162 -112 313 -218 318 -223 2 -2 -10 -20 -26 -41
-165 -211 -290 -524 -324 -813 -11 -99 -7 -340 7 -415 l6 -30 -189 -48 c-103
-26 -264 -67 -357 -92 -94 -24 -170 -43 -171 -42 -31 53 -142 186 -189 227
-94 81 -164 130 -243 170 -48 24 -89 44 -89 45 -1 0 9 59 22 130 13 72 35 200
49 285 13 85 40 242 60 349 19 107 35 196 35 198 0 2 17 3 38 3 44 0 180 22
272 44 194 46 406 155 560 289 36 31 70 57 76 57 6 0 71 -42 145 -93z m1959
-33 c168 -28 340 -98 495 -201 541 -360 715 -1052 404 -1606 -245 -437 -739
-696 -1249 -656 -338 27 -632 166 -865 411 -141 148 -251 343 -300 533 -41
159 -43 413 -6 570 19 76 71 218 107 288 81 157 262 355 422 461 194 128 365
187 632 220 63 8 263 -3 360 -20z m-3514 -1609 c234 -45 432 -221 497 -442 63
-214 2 -439 -163 -603 -128 -129 -288 -193 -475 -193 -183 0 -323 55 -455 180
-130 122 -194 269 -192 444 1 159 66 309 186 428 166 163 378 229 602 186z"/>
</g>
</svg>
