<?xml version="1.0" standalone="no"?>
<!DOCTYPE svg PUBLIC "-//W3C//DTD SVG 20010904//EN"
 "http://www.w3.org/TR/2001/REC-SVG-20010904/DTD/svg10.dtd">
<svg version="1.0" xmlns="http://www.w3.org/2000/svg"
 width="256.000000pt" height="256.000000pt" viewBox="0 0 256.000000 256.000000"
 preserveAspectRatio="xMidYMid meet">

<g transform="translate(0.000000,256.000000) scale(0.100000,-0.100000)"
fill="#000000" stroke="none">
<path d="M1190 2439 c-442 -29 -858 -343 -1005 -758 -58 -163 -68 -226 -68
-406 0 -152 3 -181 26 -270 33 -125 57 -187 109 -284 131 -243 320 -412 599
-533 19 -9 80 -28 135 -44 93 -27 110 -28 294 -28 184 0 201 1 294 28 103 29
131 40 226 86 196 95 365 251 488 450 49 80 95 195 129 325 25 91 27 116 27
275 -1 156 -4 185 -27 270 -33 121 -65 201 -116 292 -68 119 -75 128 -181 241
-117 123 -248 213 -390 269 -41 16 -84 33 -95 38 -41 18 -213 49 -285 52 -41
2 -113 0 -160 -3z m-536 -732 c16 -34 65 -136 108 -226 l80 -163 45 93 c25 52
50 101 54 109 5 8 14 26 19 40 6 14 15 32 20 40 6 8 15 26 21 40 5 14 21 49
35 78 l25 52 95 0 c94 0 95 0 89 -22 -4 -13 -15 -35 -26 -50 -10 -15 -19 -34
-19 -42 0 -8 -4 -17 -9 -21 -5 -3 -27 -40 -49 -83 -82 -161 -117 -227 -123
-232 -3 -3 -24 -43 -47 -90 l-42 -85 -3 -175 -2 -175 -82 -3 -83 -3 0 185 c0
101 -4 186 -8 188 -4 2 -17 21 -28 43 -27 54 -130 250 -158 300 -52 94 -123
231 -129 248 -6 15 2 17 91 17 l97 0 29 -63z m876 -142 l0 -205 215 0 215 0 0
205 0 206 88 -3 87 -3 0 -485 0 -485 -87 -3 -88 -3 0 221 0 220 -212 -2 -213
-3 -5 -215 -5 -215 -82 -3 -83 -3 0 491 0 490 85 0 85 0 0 -205z"/>
</g>
</svg>
