<?xml version="1.0" standalone="no"?>
<!DOCTYPE svg PUBLIC "-//W3C//DTD SVG 20010904//EN"
 "http://www.w3.org/TR/2001/REC-SVG-20010904/DTD/svg10.dtd">
<svg version="1.0" xmlns="http://www.w3.org/2000/svg"
 width="439.000000pt" height="439.000000pt" viewBox="0 0 439.000000 439.000000"
 preserveAspectRatio="xMidYMid meet">
<metadata>
Created by potrace 1.11, written by Peter Selinger 2001-2013
</metadata>
<g transform="translate(0.000000,439.000000) scale(0.100000,-0.100000)"
fill="#000000" stroke="none">
<path d="M1136 4364 c-283 -61 -516 -294 -566 -564 -7 -36 -15 -71 -19 -79 -4
-7 -34 -24 -69 -36 -95 -34 -169 -83 -253 -165 -86 -85 -145 -178 -186 -295
l-28 -80 0 -1275 0 -1275 27 -80 c40 -118 92 -200 188 -295 97 -97 196 -156
327 -193 l78 -22 1200 -3 c759 -2 1237 1 1300 7 268 27 488 179 599 415 33 69
66 181 66 223 0 17 8 23 40 28 56 10 191 77 262 131 122 95 218 242 258 399
19 76 20 109 20 1310 0 1193 -1 1234 -20 1309 -54 212 -199 389 -395 482 -155
74 -45 69 -1475 71 -1109 1 -1295 0 -1354 -13z m2022 -974 c101 -24 206 -99
255 -183 60 -102 58 -40 55 -1363 l-3 -1209 -32 -66 c-42 -85 -129 -168 -210
-201 l-58 -23 -1239 -3 c-1070 -2 -1247 0 -1290 12 -120 35 -221 127 -267 243
l-24 58 0 1215 0 1215 22 55 c48 117 139 202 257 239 59 19 100 20 1276 20
767 0 1231 -3 1258 -9z"/>
<path d="M1121 3280 c-25 -5 -67 -17 -95 -26 -307 -101 -509 -420 -466 -736
34 -247 170 -435 393 -544 52 -26 58 -32 54 -54 -3 -14 -15 -91 -28 -171 l-22
-147 -41 -6 c-288 -45 -503 -311 -482 -596 10 -149 62 -261 170 -370 104 -105
239 -160 391 -160 166 0 283 48 401 165 99 98 144 189 167 341 l12 77 98 27
98 27 44 -67 c146 -227 397 -371 672 -387 409 -24 775 242 885 643 17 64 21
106 21 219 0 122 -3 151 -27 228 -45 150 -106 256 -210 366 -252 264 -649 340
-982 187 -41 -19 -87 -44 -102 -55 l-28 -19 -72 52 c-40 29 -74 55 -77 58 -3
3 4 41 16 84 27 98 30 248 6 346 -46 188 -186 367 -357 453 -119 60 -320 90
-439 65z m285 -360 c271 -133 262 -519 -14 -648 -49 -23 -70 -27 -147 -27 -77
0 -98 4 -147 27 -231 108 -285 402 -107 580 81 81 159 110 278 103 57 -3 88
-11 137 -35z m395 -943 c-1 -4 -20 -44 -41 -89 -54 -114 -80 -221 -86 -353 -3
-73 -8 -111 -17 -116 -6 -3 -53 -16 -104 -29 l-92 -23 -45 49 c-33 38 -115
104 -132 109 -1 0 12 87 30 194 l31 193 71 18 c77 20 191 74 239 114 l30 24
59 -42 c32 -23 58 -45 57 -49z m864 48 c181 -47 333 -198 380 -376 19 -71 19
-200 0 -274 -59 -226 -272 -388 -510 -388 -149 0 -276 55 -379 164 -101 107
-145 215 -146 359 -1 240 154 445 385 511 76 22 193 24 270 4z m-1601 -769
c66 -20 110 -57 140 -118 92 -184 -78 -386 -275 -326 -52 15 -117 73 -140 122
-22 49 -25 143 -6 189 29 68 90 120 162 138 47 11 68 10 119 -5z"/>
</g>
</svg>
